# xmcd
#
# Track frame offsets: 
#        150
#        16877
#        32575
#        48092
#        65897
#        85960
#        104885
#        120112
#        138870
#        151100
#        168575
#
# Disc length: 2432 seconds
#
# Revision: 2
# Processed by: cddbd v1.5.2PL0 Copyright (c) Steve Scherf et al.
# Submitted via: ExactAudioCopy v1.0b2
#
DISCID=86097e0b
DTITLE=Raimundo Fagner - Raimundo Fagner (Pecado Verde)
DYEAR=1996
DGENRE=MPB
TTITLE0=Mucuripe
TTITLE1=Letras De Canção
TTITLE2=Um Vestido E Um Amor (Un Vestido Y Un Amor)
TTITLE3=Pecado Verde
TTITLE4=Volto Ao Sul (Vuelvo Al Sur)
TTITLE5=Letras Negras
TTITLE6=Recusa
TTITLE7=Canção Em Dois Tempos (Era Casa, Era Jardim)
TTITLE8=Apaixonadamente
TTITLE9=Autonomia
TTITLE10=Pra Quem Não Tem Amor
EXTD=
EXTT0=
EXTT1=
EXTT2=
EXTT3=
EXTT4=
EXTT5=
EXTT6=
EXTT7=
EXTT8=
EXTT9=
EXTT10=
PLAYORDER=
